Alvin and The Chipmunks 3 Chipwrecked 2011 CAM XVID-DTRG


Format                           : AVI
Format/Info                      : Audio Video Interleave
File size                        : 1.18 GiB
Duration                         : 1h 20mn
Overall bit rate                 : 2 102 Kbps
Writing library                  : VirtualDub build 32842/release

Video
ID                               : 0
Format                           : MPEG-4 Visual
Format profile                   : Advanced Simple@L5
Format settings, BVOP            : 1
Format settings, QPel            : No
Format settings, GMC             : No warppoints
Format settings, Matrix          : Default (H.263)
Muxing mode                      : Packed bitstream
Codec ID                         : XVID
Codec ID/Hint                    : XviD
Duration                         : 1h 20mn
Bit rate                         : 1 962 Kbps
Width                            : 624 pixels
Height                           : 338 pixels
Display aspect ratio             : 16:9
Frame rate                       : 29.970 fps
Color space                      : YUV
Chroma subsampling               : 4:2:0
Bit depth                        : 8 bits
Scan type                        : Progressive
Compression mode                 : Lossy
Bits/(Pixel*Frame)               : 0.310
Stream size                      : 1.10 GiB (93%)
Writing library                  : XviD 64

Audio
ID                               : 1
Format                           : MPEG Audio
Format version                   : Version 1
Format profile                   : Layer 3
Codec ID                         : 55
Codec ID/Hint                    : MP3
Duration                         : 1h 20mn
Bit rate mode                    : Constant
Bit rate                         : 128 Kbps
Channel(s)                       : 2 channels
Sampling rate                    : 44.1 KHz
Compression mode                 : Lossy
Stream size                      : 73.6 MiB (6%)
Alignment                        : Split accross interleaves
Interleave, duration             : 33 ms (1.00 video frame)
Interleave, preload duration     : 500 ms

 
http://www.imdb.com/title/tt1615918/


Ratings: 2.9/10 from 907 users   Metascore: 24/100
Reviews: 11 user | 35 critic | 19 from Metacritic.com

Playing around while aboard a cruise ship, the Chipmunks and Chipettes accidentally go overboard and end up marooned in a tropical paradise. They discover their new turf is not as deserted as it seems.
Director:
Mike Mitchell
Writers:
Jonathan Aibel, Glenn Berger, and 2 more credits »
Stars:
Justin Long, Matthew Gray Gubler and Jesse McCartney


Source Used


Unknown............Thanks


Plenty filters but pretty decent vid already but sample included so check it


Enjoy


Greetz to EMBER,ETRG,BHRG,FYA,26k,CreWSaDe,RemixHD.......and maybe many more 


Poster:

 
http://i.imgur.com/RD91h.jpg


Screens:

 
http://i.imgur.com/gbHnT.png

 
http://i.imgur.com/mhPMz.png

 
http://i.imgur.com/XFqiS.png


ENJOY!